<svg xmlns="http://www.w3.org/2000/svg" viewBox="0 0 21.3 15.96"><defs><style>.cls-1{fill:#fff;}</style></defs><title>Hamburger menu white</title><g id="Layer_2" data-name="Layer 2"><g id="Layer_1-2" data-name="Layer 1"><path class="cls-1" d="M10.65,6.65h9.2a1.35,1.35,0,0,1,1.41,1A1.33,1.33,0,0,1,20.13,9.3H1.48a1.35,1.35,0,0,1-1.42-1A1.32,1.32,0,0,1,1.18,6.67l.39,0Z"/><path class="cls-1" d="M10.68,0h9.25a1.33,1.33,0,0,1,1.31,1.71A1.35,1.35,0,0,1,20,2.66H1.45A1.33,1.33,0,1,1,1.43,0h9.25Z"/><path class="cls-1" d="M10.66,16H1.43a1.33,1.33,0,1,1-.15-2.66h18.6a1.33,1.33,0,0,1,.2,2.66H10.66Z"/></g></g></svg>