<svg id="Layer_1" data-name="Layer 1" xmlns="http://www.w3.org/2000/svg" width="93.31mm" height="70.04mm" viewBox="0 0 264.5 198.53">
  <title>Logos</title>
  <path d="M44.07,141c14.42-4.79,29.45-7.62,44.53-9.63,1.89-.24,3.77-.52,5.66-.73l5.68-.55c1.9-.17,3.79-.38,5.69-.52l5.7-.38q2.85-.19,5.7-.34l5.71-.15,5.71-.15c1.9,0,3.81,0,5.71,0,7.62,0,15.23.44,22.83,1l11.37,1.12c3.78.47,7.55,1.06,11.31,1.62a240.42,240.42,0,0,1,44.12,11.39,381.86,381.86,0,0,0-44.56-8.29L168,134.19l-11.28-.83c-7.52-.4-15.05-.78-22.59-.74-1.88,0-3.77-.09-5.65-.06l-5.65.1-5.65.1-5.65.25-5.65.23c-1.88.09-3.76.25-5.64.38l-5.65.39c-1.88.13-3.76.33-5.64.49A384.27,384.27,0,0,0,44.07,141Z"/>
  <path d="M243.06,101.3c-.09.42-.1.62-.13.78a19.19,19.19,0,0,1-10.06,13.49,16.25,16.25,0,0,1-13.91,1,14,14,0,0,1-9-14.67,10.48,10.48,0,0,1,4.16-7.54,11.87,11.87,0,0,1,4.63-1.82l.28,0c6.86-.93,13.08,4.66,9.78,11.46a4.55,4.55,0,0,1-4.06,2.38,2.59,2.59,0,0,1-.43,0h0a2.46,2.46,0,0,1-.83-.3l-.05,0a1.73,1.73,0,0,1-.73-2.11,3.45,3.45,0,0,0-2.35-4.53,3.41,3.41,0,0,0-2.07.09,3.73,3.73,0,0,0-2.19,1.83h0a6.37,6.37,0,0,0-.47,5.14c1.23,3.73,4,5.56,7.74,6.25a11.51,11.51,0,0,0,6.78-1,14.6,14.6,0,0,0,4.5-3.1c.13-.13,1.64-1.85,2.11-2.55a15,15,0,0,0,2.07-5,15.7,15.7,0,0,0-4.56-15.45l0,0a16.27,16.27,0,0,0-4.7-3.09h0a20.23,20.23,0,0,0-7.35-1.82,22.08,22.08,0,0,0-11.35,2.43,21.79,21.79,0,0,0-7.62,6.32c-2.55,3.08-8.23,14.91-17.36,20-7.56,4.23-15.58,4.63-23.72,1.74-10.08-3.58-16.82-14.5-15.36-25,.75-5.4,2.88-9.88,7.09-12.85a20.24,20.24,0,0,1,7.9-3.1l.47-.07c11.69-1.58,22.32,8,16.68,19.54A7.77,7.77,0,0,1,172,93.72a4.42,4.42,0,0,1-.73-.05h0a4.19,4.19,0,0,1-1.41-.5l-.09-.05a2.87,2.87,0,0,1-1.28-3.5,5.89,5.89,0,0,0-7.49-7.69A6.46,6.46,0,0,0,157.21,85v0a10.87,10.87,0,0,0-.8,8.76c2.1,6.36,6.9,9.48,13.2,10.66a19.63,19.63,0,0,0,11.57-1.64,24.89,24.89,0,0,0,7.67-5.28c.23-.22,2.8-3.15,3.6-4.36A26.64,26.64,0,0,0,196,84.57a27.14,27.14,0,0,0-7.77-26.35l0,0a27.74,27.74,0,0,0-8-5.27h0a34.33,34.33,0,0,0-11.88-3.05,37.17,37.17,0,0,0-22.63,5.55c-6.51,3.93-10.4,8.78-14.21,15.84s-12.12,24.92-24.75,32c-10.69,6-22,6.55-33.53,2.46C58.9,100.63,49.37,85.2,51.44,70.33c1.06-7.63,4.07-14,10-18.17a28.61,28.61,0,0,1,11.17-4.38l.66-.09c16.53-2.23,31.55,11.24,23.58,27.63-2.11,3.44-5.41,5.86-9.79,5.74A6.25,6.25,0,0,1,86,81h0a5.92,5.92,0,0,1-2-.71l-.13-.08a4.11,4.11,0,0,1-1.79-5,8.32,8.32,0,0,0-5.51-11,8.22,8.22,0,0,0-5.1.18,9,9,0,0,0-5.28,4.42v0a15.36,15.36,0,0,0-1.13,12.39c3,9,9.75,13.4,18.66,15.07,5.69,1.07,11.14-.07,16.36-2.32a35.19,35.19,0,0,0,10.84-7.47c.32-.32,4-4.46,5.09-6.16a36.1,36.1,0,0,0,5-12.14,37.86,37.86,0,0,0-11-37.25l0,0a39.22,39.22,0,0,0-11.34-7.45v0a48.53,48.53,0,0,0-16.79-4.32,52.54,52.54,0,0,0-32,7.84A50.24,50.24,0,0,0,26.93,57c-4.17,14.51-2.16,28.45,5.55,41.47a52.51,52.51,0,0,0,14.58,16A53.42,53.42,0,0,0,128,89.25a37.55,37.55,0,0,0,60.74,27A38.46,38.46,0,0,0,199,104a22,22,0,0,0,35.6,15.62A22.36,22.36,0,0,0,243,104.15,28,28,0,0,0,243.06,101.3Z"/>
</svg>
